<svg xmlns="http://www.w3.org/2000/svg" xmlns:xlink="http://www.w3.org/1999/xlink" viewBox="0,0,256,256" width="48px" height="48px" fill-rule="nonzero"><defs><linearGradient x1="-21.362" y1="50.19" x2="68.152" y2="-1.491" gradientUnits="userSpaceOnUse" id="color-1"><stop offset="0" stop-color="#faf3df"></stop><stop offset="1" stop-color="#ffffff"></stop></linearGradient></defs><g fill="url(#color-1)" fill-rule="nonzero" stroke="none" stroke-width="1" stroke-linecap="butt" stroke-linejoin="miter" stroke-miterlimit="10" stroke-dasharray="" stroke-dashoffset="0" font-family="none" font-weight="none" font-size="none" text-anchor="none" style="mix-blend-mode: normal"><g transform="scale(5.33333,5.33333)"><path d="M38,14h-32v-4c0,-2.2 1.8,-4 4,-4h32v4c0,2.2 -1.8,4 -4,4zM42,24v-4h-32c-2.2,0 -4,1.8 -4,4v4h32c2.2,0 4,-1.8 4,-4zM42,38v-4h-32c-2.2,0 -4,1.8 -4,4v4h32c2.2,0 4,-1.8 4,-4z"></path></g></g></svg>